<svg width="58" height="58" viewBox="0 0 58 58" fill="none" xmlns="http://www.w3.org/2000/svg">
<path fill-rule="evenodd" clip-rule="evenodd" d="M35.1238 29.5437L45.3777 39.7976L35.1238 50.0515C34.6707 50.5047 34.0561 50.7594 33.4152 50.7596H26.5833C25.9424 50.7596 25.3277 50.505 24.8745 50.0518C24.4213 49.5985 24.1667 48.9839 24.1667 48.3429V41.5062C24.1668 40.8653 24.4215 40.2507 24.8747 39.7976L35.1238 29.5437ZM41.0833 4.83325C42.3027 4.83287 43.4772 5.2934 44.3713 6.12254C45.2654 6.95167 45.8131 8.08813 45.9046 9.30409L45.9167 9.66658V19.3816C44.0909 19.0352 42.2099 19.115 40.4201 19.6146C38.6302 20.1143 36.9798 21.0204 35.5975 22.2623L35.1238 22.7093L21.4552 36.3804C20.2128 37.623 19.4639 39.2744 19.3478 41.0277L19.3309 41.5062V48.3429C19.3311 48.9996 19.4205 49.6533 19.5967 50.2859L19.7417 50.7499H12.0833C10.8639 50.7503 9.68946 50.2898 8.79534 49.4606C7.90122 48.6315 7.35354 47.495 7.26208 46.2791L7.25 45.9166V9.66658C7.24961 8.44719 7.71015 7.27272 8.53928 6.37859C9.36842 5.48447 10.5049 4.93679 11.7208 4.84534L12.0833 4.83325H41.0833ZM48.7949 26.1265C49.4683 26.7997 50.0024 27.599 50.3668 28.4787C50.7313 29.3584 50.9188 30.3013 50.9188 31.2535C50.9188 32.2056 50.7313 33.1485 50.3668 34.0282C50.0024 34.9079 49.4683 35.7072 48.7949 36.3804L38.5458 26.1241C39.9054 24.7649 41.7491 24.0014 43.6716 24.0014C45.594 24.0014 47.4378 24.7649 48.7973 26.1241L48.7949 26.1265ZM26.5833 14.4999H16.9167C16.2757 14.4999 15.661 14.7545 15.2078 15.2077C14.7546 15.661 14.5 16.2756 14.5 16.9166C14.5 17.5575 14.7546 18.1722 15.2078 18.6254C15.661 19.0786 16.2757 19.3333 16.9167 19.3333H26.5833C27.2243 19.3333 27.839 19.0786 28.2922 18.6254C28.7454 18.1722 29 17.5575 29 16.9166C29 16.2756 28.7454 15.661 28.2922 15.2077C27.839 14.7545 27.2243 14.4999 26.5833 14.4999Z" fill="#292D32"/>
</svg>
