<svg width="77" height="77" viewBox="0 0 77 77" fill="none" xmlns="http://www.w3.org/2000/svg">
<path d="M54.3466 0H22.2518C8.31093 0 0 8.31093 0 22.2518V54.3083C0 68.2875 8.31093 76.5984 22.2518 76.5984H54.3083C68.2492 76.5984 76.5601 68.2875 76.5601 54.3466V22.2518C76.5984 8.31093 68.2875 0 54.3466 0ZM38.2992 53.1593C30.1032 53.1593 23.4391 46.4952 23.4391 38.2992C23.4391 30.1032 30.1032 23.4391 38.2992 23.4391C46.4952 23.4391 53.1593 30.1032 53.1593 38.2992C53.1593 46.4952 46.4952 53.1593 38.2992 53.1593ZM60.9723 18.69C60.7808 19.1496 60.5127 19.5709 60.168 19.9539C59.785 20.2986 59.3638 20.5667 58.9042 20.7582C58.4446 20.9497 57.9467 21.0646 57.4488 21.0646C56.4147 21.0646 55.4572 20.6816 54.7296 19.9539C54.3849 19.5709 54.1168 19.1496 53.9253 18.69C53.7338 18.2304 53.6189 17.7325 53.6189 17.2346C53.6189 16.7368 53.7338 16.2389 53.9253 15.7793C54.1168 15.2814 54.3849 14.8984 54.7296 14.5154C55.6104 13.6345 56.9509 13.2132 58.1765 13.4813C58.4446 13.5196 58.6744 13.5962 58.9042 13.7111C59.134 13.7877 59.3638 13.9026 59.5936 14.0558C59.785 14.1707 59.9765 14.3622 60.168 14.5154C60.5127 14.8984 60.7808 15.2814 60.9723 15.7793C61.1638 16.2389 61.2787 16.7368 61.2787 17.2346C61.2787 17.7325 61.1638 18.2304 60.9723 18.69Z" fill="black"/>
</svg>
