<svg width="64" height="50" viewBox="0 0 64 50" fill="none" xmlns="http://www.w3.org/2000/svg">
<path d="M60.8457 46.0947H57.9134V18.3406C57.9134 16.8137 57.0923 15.3854 55.6555 14.4496L52.0487 12.0854L51.9901 6.05196C51.9901 4.6975 50.6705 3.61393 49.0577 3.61393H39.0585L35.1292 1.05278C33.0179 -0.350927 30.027 -0.350927 27.9157 1.05278L7.38945 14.4496C5.95261 15.3854 5.13156 16.8137 5.13156 18.3159L4.98495 46.0947H2.19924C0.996989 46.0947 0 46.932 0 47.9417C0 48.9514 0.996989 49.7887 2.19924 49.7887H60.8457C62.0479 49.7887 63.0449 48.9514 63.0449 47.9417C63.0449 46.932 62.0479 46.0947 60.8457 46.0947ZM15.3947 25.162V21.468C15.3947 20.1136 16.7142 19.0054 18.327 19.0054H24.1917C25.8044 19.0054 27.124 20.1136 27.124 21.468V25.162C27.124 26.5164 25.8044 27.6246 24.1917 27.6246H18.327C16.7142 27.6246 15.3947 26.5164 15.3947 25.162ZM38.8533 46.0947H24.1917V39.3222C24.1917 37.2782 26.1563 35.6282 28.5901 35.6282H34.4548C36.8886 35.6282 38.8533 37.2782 38.8533 39.3222V46.0947ZM47.6502 25.162C47.6502 26.5164 46.3307 27.6246 44.7179 27.6246H38.8533C37.2405 27.6246 35.9209 26.5164 35.9209 25.162V21.468C35.9209 20.1136 37.2405 19.0054 38.8533 19.0054H44.7179C46.3307 19.0054 47.6502 20.1136 47.6502 21.468V25.162Z" fill="#292D32"/>
</svg>
