<svg width="82" height="82" viewBox="0 0 82 82" fill="none" xmlns="http://www.w3.org/2000/svg">
<path d="M82 41C82 18.409 63.591 0 41 0C18.409 0 0 18.409 0 41C0 52.89 5.125 63.591 13.243 71.094C13.243 71.135 13.243 71.135 13.202 71.176C13.612 71.586 14.104 71.914 14.514 72.283C14.76 72.488 14.965 72.693 15.211 72.857C15.949 73.472 16.769 74.046 17.548 74.62C17.835 74.825 18.081 74.989 18.368 75.194C19.147 75.727 19.967 76.219 20.828 76.67C21.115 76.834 21.443 77.039 21.73 77.203C22.55 77.654 23.411 78.064 24.313 78.433C24.641 78.597 24.969 78.761 25.297 78.884C26.199 79.253 27.101 79.581 28.003 79.868C28.331 79.991 28.659 80.114 28.987 80.196C29.971 80.483 30.955 80.729 31.939 80.975C32.226 81.057 32.513 81.139 32.841 81.18C33.989 81.426 35.137 81.59 36.326 81.713C36.49 81.713 36.654 81.754 36.818 81.795C38.212 81.918 39.606 82 41 82C42.394 82 43.788 81.918 45.141 81.795C45.305 81.795 45.469 81.754 45.633 81.713C46.822 81.59 47.97 81.426 49.118 81.18C49.405 81.139 49.692 81.016 50.02 80.975C51.004 80.729 52.029 80.524 52.972 80.196C53.3 80.073 53.628 79.95 53.956 79.868C54.858 79.54 55.801 79.253 56.662 78.884C56.99 78.761 57.318 78.597 57.646 78.433C58.507 78.064 59.368 77.654 60.229 77.203C60.557 77.039 60.844 76.834 61.131 76.67C61.951 76.178 62.771 75.727 63.591 75.194C63.878 75.03 64.124 74.825 64.411 74.62C65.231 74.046 66.01 73.472 66.748 72.857C66.994 72.652 67.199 72.447 67.445 72.283C67.896 71.914 68.347 71.545 68.757 71.176C68.757 71.135 68.757 71.135 68.716 71.094C76.875 63.591 82 52.89 82 41ZM61.254 61.377C50.143 53.915 31.939 53.915 20.746 61.377C18.942 62.566 17.466 63.96 16.236 65.477C10.004 59.163 6.15 50.512 6.15 41C6.15 21.771 21.771 6.15 41 6.15C60.229 6.15 75.85 21.771 75.85 41C75.85 50.512 71.996 59.163 65.764 65.477C64.575 63.96 63.058 62.566 61.254 61.377Z" fill="#ffffff"/>
<path d="M41 20.2117C32.513 20.2117 25.625 27.0997 25.625 35.5867C25.625 43.9097 32.144 50.6747 40.795 50.9207H41.164H41.451H41.533C49.815 50.6337 56.334 43.9097 56.375 35.5867C56.375 27.0997 49.487 20.2117 41 20.2117Z" fill="#ffffff"/>
</svg>
