<svg width="64" height="64" viewBox="0 0 64 64" fill="none" xmlns="http://www.w3.org/2000/svg">
<path fill-rule="evenodd" clip-rule="evenodd" d="M15.8333 8C13.7558 8 11.7634 8.8253 10.2943 10.2943C8.8253 11.7634 8 13.7558 8 15.8333V47.1667C8 49.2442 8.8253 51.2366 10.2943 52.7057C11.7634 54.1747 13.7558 55 15.8333 55H47.1667C49.2442 55 51.2366 54.1747 52.7057 52.7057C54.1747 51.2366 55 49.2442 55 47.1667V15.8333C55 13.7558 54.1747 11.7634 52.7057 10.2943C51.2366 8.8253 49.2442 8 47.1667 8H15.8333ZM26.2778 21.0556C26.2778 20.363 26.5529 19.6989 27.0426 19.2092C27.5322 18.7195 28.1964 18.4444 28.8889 18.4444H44.5556C45.2481 18.4444 45.9122 18.7195 46.4019 19.2092C46.8916 19.6989 47.1667 20.363 47.1667 21.0556C47.1667 21.7481 46.8916 22.4122 46.4019 22.9019C45.9122 23.3916 45.2481 23.6667 44.5556 23.6667H28.8889C28.1964 23.6667 27.5322 23.3916 27.0426 22.9019C26.5529 22.4122 26.2778 21.7481 26.2778 21.0556ZM26.2778 31.5C26.2778 30.8075 26.5529 30.1433 27.0426 29.6537C27.5322 29.164 28.1964 28.8889 28.8889 28.8889H44.5556C45.2481 28.8889 45.9122 29.164 46.4019 29.6537C46.8916 30.1433 47.1667 30.8075 47.1667 31.5C47.1667 32.1925 46.8916 32.8567 46.4019 33.3463C45.9122 33.836 45.2481 34.1111 44.5556 34.1111H28.8889C28.1964 34.1111 27.5322 33.836 27.0426 33.3463C26.5529 32.8567 26.2778 32.1925 26.2778 31.5ZM26.2778 41.9444C26.2778 41.2519 26.5529 40.5878 27.0426 40.0981C27.5322 39.6084 28.1964 39.3333 28.8889 39.3333H44.5556C45.2481 39.3333 45.9122 39.6084 46.4019 40.0981C46.8916 40.5878 47.1667 41.2519 47.1667 41.9444C47.1667 42.637 46.8916 43.3011 46.4019 43.7908C45.9122 44.2805 45.2481 44.5556 44.5556 44.5556H28.8889C28.1964 44.5556 27.5322 44.2805 27.0426 43.7908C26.5529 43.3011 26.2778 42.637 26.2778 41.9444ZM18.4444 18.4444C17.7519 18.4444 17.0878 18.7195 16.5981 19.2092C16.1084 19.6989 15.8333 20.363 15.8333 21.0556C15.8333 21.7481 16.1084 22.4122 16.5981 22.9019C17.0878 23.3916 17.7519 23.6667 18.4444 23.6667C19.137 23.6667 19.8037 23.3916 20.2934 22.9019C20.7831 22.4122 21.0582 21.7481 21.0582 21.0556C21.0582 20.363 20.7831 19.6989 20.2934 19.2092C19.8037 18.7195 19.137 18.4444 18.4444 18.4444ZM15.8333 31.5C15.8333 30.8075 16.1084 30.1433 16.5981 29.6537C17.0878 29.164 17.7519 28.8889 18.4444 28.8889C19.137 28.8889 19.8037 29.164 20.2934 29.6537C20.7831 30.1433 21.0582 30.8075 21.0582 31.5C21.0582 32.1925 20.7831 32.8567 20.2934 33.3463C19.8037 33.836 19.1396 34.1111 18.4471 34.1111C17.7545 34.1111 17.0878 33.836 16.5981 33.3463C16.1084 32.8567 15.8333 32.1925 15.8333 31.5ZM18.4444 39.3333C17.7519 39.3333 17.0878 39.6084 16.5981 40.0981C16.1084 40.5878 15.8333 41.2519 15.8333 41.9444C15.8333 42.637 16.1084 43.3011 16.5981 43.7908C17.0878 44.2805 17.7519 44.5556 18.4444 44.5556C19.137 44.5556 19.8037 44.2805 20.2934 43.7908C20.7831 43.3011 21.0582 42.637 21.0582 41.9444C21.0582 41.2519 20.7831 40.5878 20.2934 40.0981C19.8037 39.6084 19.137 39.3333 18.4444 39.3333Z" fill="#292D32"/>
</svg>
