<svg width="124" height="124" viewBox="0 0 124 124" fill="none" xmlns="http://www.w3.org/2000/svg">
<path d="M25.8333 108.5C22.9917 108.5 20.5582 107.487 18.5328 105.462C16.5075 103.437 15.4966 101.005 15.5 98.1667V25.8333C15.5 22.9917 16.5127 20.5582 18.538 18.5328C20.5633 16.5075 22.9951 15.4966 25.8333 15.5H98.1667C101.008 15.5 103.442 16.5127 105.467 18.538C107.493 20.5633 108.503 22.9951 108.5 25.8333V98.1667C108.5 101.008 107.487 103.442 105.462 105.467C103.437 107.493 101.005 108.503 98.1667 108.5H25.8333ZM31 87.8333H93L73.625 62L58.125 82.6667L46.5 67.1667L31 87.8333Z" fill="black"/>
</svg>
