<svg width="30" height="25" viewBox="0 0 30 25" fill="none" xmlns="http://www.w3.org/2000/svg">
<path d="M13.9323 23.0589C6.25256 23.0589 0 17.9997 0 11.7857C0 5.57165 6.25256 0.512451 13.9323 0.512451C21.6121 0.512451 27.8647 5.57165 27.8647 11.7857C27.8647 17.9997 21.6121 23.0589 13.9323 23.0589ZM13.9323 2.16219C7.36714 2.16219 2.03888 6.4845 2.03888 11.7857C2.03888 17.0868 7.36714 21.4091 13.9323 21.4091C20.4975 21.4091 25.8258 17.0868 25.8258 11.7857C25.8258 6.4845 20.4975 2.16219 13.9323 2.16219Z" fill="#292D32"/>
<path d="M28.205 24.1587C27.9468 24.1587 27.6885 24.0817 27.4846 23.9167L24.7661 21.717C24.3719 21.3981 24.3719 20.8702 24.7661 20.5512C25.1603 20.2323 25.8127 20.2323 26.2069 20.5512L28.9254 22.7509C29.3196 23.0698 29.3196 23.5977 28.9254 23.9167C28.7215 24.0817 28.4633 24.1587 28.205 24.1587Z" fill="#292D32"/>
</svg>
