<svg width="58" height="42" viewBox="0 0 58 42" fill="none" xmlns="http://www.w3.org/2000/svg">
<path d="M43.5 0H14.5C5.8 0 0 3.70588 0 12.3529V29.6471C0 38.2941 5.8 42 14.5 42H43.5C52.2 42 58 38.2941 58 29.6471V12.3529C58 3.70588 52.2 0 43.5 0ZM12.325 27.1765C12.325 28.1894 11.339 29.0294 10.15 29.0294C8.961 29.0294 7.975 28.1894 7.975 27.1765V14.8235C7.975 13.8106 8.961 12.9706 10.15 12.9706C11.339 12.9706 12.325 13.8106 12.325 14.8235V27.1765ZM29 28.4118C24.186 28.4118 20.3 25.1012 20.3 21C20.3 16.8988 24.186 13.5882 29 13.5882C33.814 13.5882 37.7 16.8988 37.7 21C37.7 25.1012 33.814 28.4118 29 28.4118ZM50.025 27.1765C50.025 28.1894 49.039 29.0294 47.85 29.0294C46.661 29.0294 45.675 28.1894 45.675 27.1765V14.8235C45.675 13.8106 46.661 12.9706 47.85 12.9706C49.039 12.9706 50.025 13.8106 50.025 14.8235V27.1765Z" fill="#00bf63"/>
</svg>
