<svg width="83" height="78" viewBox="0 0 83 78" fill="none" xmlns="http://www.w3.org/2000/svg">
<path d="M11.3319 0H4.8326C0.545907 0 -1.62044 4.41392 1.42173 6.99196L27.8332 29.374C35.3926 35.7801 47.6074 35.7801 55.1667 29.374L81.5783 6.99196C84.6204 4.41392 82.4541 0 78.1674 0H71.6682C67.8424 0 64.1549 1.28902 61.4354 3.59363L44.934 17.5776C43.0441 19.1791 40.002 19.1791 38.1121 17.5776L21.6107 3.59363C18.8451 1.28902 15.1577 0 11.3319 0Z" fill="black"/>
<path d="M11.3319 78.0001H4.8326C0.545907 78.0001 -1.62044 73.5866 1.42173 71.0085L27.8332 48.6264C35.3926 42.2204 47.6074 42.2204 55.1667 48.6264L81.5783 71.0085C84.6204 73.5866 82.4541 78.0001 78.1674 78.0001H71.6682C67.8424 78.0001 64.1549 76.7111 61.4354 74.4065L44.934 60.4225C43.0441 58.821 40.002 58.821 38.1121 60.4225L21.6107 74.4065C18.8451 76.7111 15.1577 78.0001 11.3319 78.0001Z" fill="black"/>
</svg>
