<svg width="21" height="20" viewBox="0 0 21 20" fill="none" xmlns="http://www.w3.org/2000/svg">
<path d="M14.9069 0H6.10354C2.27964 0 0 2.17 0 5.81V14.18C0 17.83 2.27964 20 6.10354 20H14.8964C18.7203 20 21 17.83 21 14.19V5.81C21.0105 2.17 18.7308 0 14.9069 0ZM9.40219 15.51C9.09753 15.8 8.51975 16.08 8.09954 16.14L5.51525 16.49C5.4207 16.5 5.32615 16.51 5.23161 16.51C4.80089 16.51 4.40169 16.37 4.11805 16.1C3.77138 15.77 3.62431 15.29 3.70835 14.76L4.07603 12.3C4.13906 11.89 4.4227 11.35 4.73786 11.06L9.4232 6.6C9.50724 6.81 9.59128 7.02 9.70684 7.26C9.81189 7.47 9.92745 7.69 10.0535 7.89C10.1586 8.06 10.2741 8.22 10.3687 8.34C10.4842 8.51 10.6208 8.67 10.7048 8.76C10.7574 8.83 10.7994 8.88 10.8204 8.9C11.083 9.2 11.3877 9.48 11.6503 9.69C11.7238 9.76 11.7659 9.8 11.7869 9.81C11.9445 9.93 12.102 10.05 12.2386 10.14C12.4067 10.26 12.5748 10.37 12.7534 10.46C12.9635 10.58 13.1946 10.69 13.4257 10.8C13.6673 10.9 13.8879 10.99 14.1085 11.06L9.40219 15.51ZM16.1465 9.09L15.1801 10.02C15.117 10.08 15.033 10.11 14.9489 10.11C14.9174 10.11 14.8754 10.11 14.8544 10.1C12.7218 9.52 11.02 7.9 10.4107 5.87C10.3792 5.76 10.4107 5.64 10.4947 5.57L11.4717 4.64C13.0685 3.12 14.5918 3.15 16.1571 4.64C16.9554 5.4 17.3441 6.13 17.3441 6.89C17.3336 7.61 16.9449 8.33 16.1465 9.09Z" fill="#00BF63" fill-opacity="0.97"/>
</svg>
