<svg width="52" height="45" viewBox="0 0 52 45" fill="none" xmlns="http://www.w3.org/2000/svg">
<path d="M40.4965 0H11.4775C5.15315 0 0 4.455 0 9.9225V24.5475V24.9975C0 30.4875 5.15315 34.92 11.4775 34.92H21.4715C22.9029 34.92 24.0741 35.9325 24.0741 37.17V39.3525C24.0741 40.59 22.9029 41.6025 21.4715 41.6025H15.1732C14.1061 41.6025 13.2212 42.3675 13.2212 43.29C13.2212 44.2125 14.0801 45 15.1732 45H36.9049C37.972 45 38.8569 44.235 38.8569 43.3125C38.8569 42.39 37.972 41.625 36.9049 41.625H30.6066C29.1752 41.625 28.004 40.6125 28.004 39.375V37.1925C28.004 35.955 29.1752 34.9425 30.6066 34.9425H40.5225C46.8729 34.9425 52 30.4875 52 25.02V24.57V9.945C51.974 4.455 46.8208 0 40.4965 0Z" fill="#292D32"/>
</svg>
