<svg width="58" height="52" viewBox="0 0 58 52" fill="none" xmlns="http://www.w3.org/2000/svg">
<path d="M42.8387 52C45.5989 52 47.8366 50.0827 47.8366 47.7177C47.8366 45.3526 45.5989 43.4353 42.8387 43.4353C40.0784 43.4353 37.8408 45.3526 37.8408 47.7177C37.8408 50.0827 40.0784 52 42.8387 52Z" fill="#00bf63"/>
<path d="M19.9915 52C22.7518 52 24.9894 50.0827 24.9894 47.7177C24.9894 45.3526 22.7518 43.4353 19.9915 43.4353C17.2313 43.4353 14.9937 45.3526 14.9937 47.7177C14.9937 50.0827 17.2313 52 19.9915 52Z" fill="#00bf63"/>
<path d="M10.2528 6.58259L9.68159 12.5779C9.56735 13.728 10.624 14.6824 11.9663 14.6824H55.6905C56.89 14.6824 57.8896 13.8993 57.9753 12.8715C58.3466 8.54024 54.4911 5.01647 49.4361 5.01647H14.3367C14.0512 3.93976 13.48 2.912 12.5946 2.05553C11.1667 0.758588 9.16752 0 7.11125 0H2.14194C0.971015 0 0 0.832 0 1.83529C0 2.83859 0.971015 3.67059 2.14194 3.67059H7.11125C7.99659 3.67059 8.82481 3.98871 9.42455 4.52706C10.0243 5.08988 10.3099 5.824 10.2528 6.58259Z" fill="#00bf63"/>
<path d="M55.0054 18.3528H11.1953C9.99586 18.3528 9.02484 19.1358 8.9106 20.1391L7.88247 30.7838C7.48264 34.9683 11.3096 38.541 16.1932 38.541H47.9512C52.2351 38.541 56.005 35.5311 56.3191 31.8605L57.2616 20.4328C57.3758 19.3071 56.3477 18.3528 55.0054 18.3528Z" fill="#00bf63"/>
</svg>
