<svg width="22" height="20" viewBox="0 0 22 20" fill="none" xmlns="http://www.w3.org/2000/svg">
<path d="M21.2198 3.7006C19.4049 3.55184 17.5899 3.44026 15.7637 3.35658V3.34728L15.5157 2.13854C15.3466 1.28312 15.0986 0 12.4607 0H9.5072C6.88055 0 6.63255 1.22734 6.45218 2.12924L6.21545 3.31939C5.16706 3.37517 4.11867 3.43096 3.07028 3.51464L0.770594 3.7006C0.297128 3.7378 -0.0410613 4.08182 0.00403068 4.46304C0.0491226 4.84426 0.45495 5.1232 0.928416 5.08601L3.22811 4.90005C9.13519 4.41655 15.0873 4.60251 21.062 5.0953H21.1522C21.5806 5.0953 21.9526 4.82566 21.9977 4.46304C22.0315 4.08182 21.6933 3.7378 21.2198 3.7006Z" fill="#FF3131"/>
<path d="M19.1456 6.40632C18.875 6.17387 18.503 6.0437 18.1198 6.0437H3.87075C3.48746 6.0437 3.10418 6.17387 2.8449 6.40632C2.58563 6.63877 2.43908 6.95491 2.46162 7.28034L3.16055 16.8201C3.28455 18.2334 3.44237 20 7.37665 20H14.6138C18.5481 20 18.7061 18.2427 18.8299 16.8201L19.5289 7.28963C19.5514 6.95491 19.4049 6.63877 19.1456 6.40632ZM12.8665 15.3417H9.11263C8.65049 15.3417 8.26721 15.0256 8.26721 14.6444C8.26721 14.2631 8.65049 13.947 9.11263 13.947H12.8665C13.3287 13.947 13.712 14.2631 13.712 14.6444C13.712 15.0256 13.3287 15.3417 12.8665 15.3417ZM13.8135 11.6225H8.17703C7.71484 11.6225 7.33155 11.3064 7.33155 10.9252C7.33155 10.5439 7.71484 10.2278 8.17703 10.2278H13.8135C14.2757 10.2278 14.6589 10.5439 14.6589 10.9252C14.6589 11.3064 14.2757 11.6225 13.8135 11.6225Z" fill="#FF3131"/>
</svg>
