<svg width="77" height="77" viewBox="0 0 77 77" fill="none" xmlns="http://www.w3.org/2000/svg">
<path d="M76.5602 54.3195C76.5602 68.2534 68.2534 76.5602 54.3195 76.5602H49.7642C47.6587 76.5602 45.9361 74.8376 45.9361 72.7322V50.6446C45.9361 49.611 46.7783 48.7306 47.8119 48.7306L54.5492 48.6157C55.0851 48.5775 55.5445 48.1947 55.6593 47.6587L56.9991 40.3472C57.1139 39.6582 56.578 39.0074 55.8507 39.0074L47.697 39.1223C46.6252 39.1223 45.783 38.2801 45.7447 37.2466L45.5916 27.8679C45.5916 27.2554 46.0893 26.7196 46.74 26.7196L55.9273 26.5664C56.578 26.5664 57.0757 26.0688 57.0757 25.418L56.9225 16.2307C56.9225 15.58 56.4249 15.0824 55.7741 15.0824L45.4385 15.2355C39.084 15.3504 34.031 20.5564 34.1459 26.9109L34.3373 37.438C34.3755 38.5098 33.5334 39.352 32.4615 39.3902L27.8679 39.4668C27.2172 39.4668 26.7196 39.9644 26.7196 40.6152L26.8344 47.8884C26.8344 48.5392 27.332 49.0368 27.9828 49.0368L32.5764 48.9603C33.6482 48.9603 34.4904 49.8024 34.5287 50.836L34.8732 72.6557C34.9115 74.7993 33.1889 76.5602 31.0452 76.5602H22.2407C8.30678 76.5602 0 68.2534 0 54.2812V22.2407C0 8.30678 8.30678 0 22.2407 0H54.3195C68.2534 0 76.5602 8.30678 76.5602 22.2407V54.3195Z" fill="black"/>
</svg>
