<svg width="211" height="30" viewBox="0 0 211 30" fill="none" xmlns="http://www.w3.org/2000/svg">
<path d="M20.686 10.912C20.686 12.4573 20.3313 13.876 19.622 15.168C18.9127 16.4347 17.8233 17.4607 16.354 18.246C14.8847 19.0313 13.0607 19.424 10.882 19.424H6.854V29H0.356V2.324H10.882C13.01 2.324 14.8087 2.69133 16.278 3.426C17.7473 4.16066 18.8493 5.174 19.584 6.466C20.3187 7.758 20.686 9.24 20.686 10.912ZM10.388 14.256C11.6293 14.256 12.554 13.9647 13.162 13.382C13.77 12.7993 14.074 11.976 14.074 10.912C14.074 9.848 13.77 9.02467 13.162 8.442C12.554 7.85933 11.6293 7.568 10.388 7.568H6.854V14.256H10.388ZM30.5669 11.33C31.3269 10.1647 32.2769 9.25267 33.4169 8.594C34.5569 7.91 35.8236 7.568 37.2169 7.568V14.446H35.4309C33.8096 14.446 32.5936 14.8007 31.7829 15.51C30.9722 16.194 30.5669 17.41 30.5669 19.158V29H24.0689V7.796H30.5669V11.33ZM60.3108 18.056C60.3108 18.664 60.2728 19.2973 60.1968 19.956H45.4908C45.5921 21.2733 46.0101 22.2867 46.7448 22.996C47.5048 23.68 48.4295 24.022 49.5188 24.022C51.1401 24.022 52.2675 23.338 52.9008 21.97H59.8168C59.4621 23.3633 58.8161 24.6173 57.8788 25.732C56.9668 26.8467 55.8141 27.7207 54.4208 28.354C53.0275 28.9873 51.4695 29.304 49.7468 29.304C47.6695 29.304 45.8201 28.8607 44.1988 27.974C42.5775 27.0873 41.3108 25.8207 40.3988 24.174C39.4868 22.5273 39.0308 20.602 39.0308 18.398C39.0308 16.194 39.4741 14.2687 40.3608 12.622C41.2728 10.9753 42.5395 9.70867 44.1608 8.822C45.7821 7.93533 47.6441 7.492 49.7468 7.492C51.7988 7.492 53.6228 7.92267 55.2188 8.784C56.8148 9.64533 58.0561 10.874 58.9428 12.47C59.8548 14.066 60.3108 15.928 60.3108 18.056ZM53.6608 16.346C53.6608 15.2313 53.2808 14.3447 52.5208 13.686C51.7608 13.0273 50.8108 12.698 49.6708 12.698C48.5815 12.698 47.6568 13.0147 46.8968 13.648C46.1621 14.2813 45.7061 15.1807 45.5288 16.346H53.6608ZM88.1315 12.964V18.36H71.4115V12.964H88.1315Z" fill="#FF3131"/>
<path d="M114.503 29.266C111.995 29.266 109.69 28.6833 107.587 27.518C105.51 26.3527 103.851 24.7313 102.609 22.654C101.393 20.5513 100.785 18.1953 100.785 15.586C100.785 12.9767 101.393 10.6333 102.609 8.556C103.851 6.47867 105.51 4.85733 107.587 3.692C109.69 2.52667 111.995 1.944 114.503 1.944C117.011 1.944 119.304 2.52667 121.381 3.692C123.484 4.85733 125.131 6.47867 126.321 8.556C127.537 10.6333 128.145 12.9767 128.145 15.586C128.145 18.1953 127.537 20.5513 126.321 22.654C125.105 24.7313 123.459 26.3527 121.381 27.518C119.304 28.6833 117.011 29.266 114.503 29.266ZM114.503 23.338C116.631 23.338 118.329 22.6287 119.595 21.21C120.887 19.7913 121.533 17.9167 121.533 15.586C121.533 13.23 120.887 11.3553 119.595 9.962C118.329 8.54333 116.631 7.834 114.503 7.834C112.35 7.834 110.627 8.53067 109.335 9.924C108.069 11.3173 107.435 13.2047 107.435 15.586C107.435 17.942 108.069 19.8293 109.335 21.248C110.627 22.6413 112.35 23.338 114.503 23.338ZM138.258 11.33C139.018 10.1647 139.968 9.25267 141.108 8.594C142.248 7.91 143.515 7.568 144.908 7.568V14.446H143.122C141.501 14.446 140.285 14.8007 139.474 15.51C138.664 16.194 138.258 17.41 138.258 19.158V29H131.76V7.796H138.258V11.33ZM146.722 18.36C146.722 16.1813 147.128 14.2687 147.938 12.622C148.774 10.9753 149.902 9.70867 151.32 8.822C152.739 7.93533 154.322 7.492 156.07 7.492C157.464 7.492 158.73 7.78333 159.87 8.366C161.036 8.94867 161.948 9.734 162.606 10.722V0.88H169.104V29H162.606V25.96C161.998 26.9733 161.124 27.784 159.984 28.392C158.87 29 157.565 29.304 156.07 29.304C154.322 29.304 152.739 28.8607 151.32 27.974C149.902 27.062 148.774 25.7827 147.938 24.136C147.128 22.464 146.722 20.5387 146.722 18.36ZM162.606 18.398C162.606 16.7767 162.15 15.4973 161.238 14.56C160.352 13.6227 159.262 13.154 157.97 13.154C156.678 13.154 155.576 13.6227 154.664 14.56C153.778 15.472 153.334 16.7387 153.334 18.36C153.334 19.9813 153.778 21.2733 154.664 22.236C155.576 23.1733 156.678 23.642 157.97 23.642C159.262 23.642 160.352 23.1733 161.238 22.236C162.15 21.2987 162.606 20.0193 162.606 18.398ZM193.793 18.056C193.793 18.664 193.755 19.2973 193.679 19.956H178.973C179.075 21.2733 179.493 22.2867 180.227 22.996C180.987 23.68 181.912 24.022 183.001 24.022C184.623 24.022 185.75 23.338 186.383 21.97H193.299C192.945 23.3633 192.299 24.6173 191.361 25.732C190.449 26.8467 189.297 27.7207 187.903 28.354C186.51 28.9873 184.952 29.304 183.229 29.304C181.152 29.304 179.303 28.8607 177.681 27.974C176.06 27.0873 174.793 25.8207 173.881 24.174C172.969 22.5273 172.513 20.602 172.513 18.398C172.513 16.194 172.957 14.2687 173.843 12.622C174.755 10.9753 176.022 9.70867 177.643 8.822C179.265 7.93533 181.127 7.492 183.229 7.492C185.281 7.492 187.105 7.92267 188.701 8.784C190.297 9.64533 191.539 10.874 192.425 12.47C193.337 14.066 193.793 15.928 193.793 18.056ZM187.143 16.346C187.143 15.2313 186.763 14.3447 186.003 13.686C185.243 13.0273 184.293 12.698 183.153 12.698C182.064 12.698 181.139 13.0147 180.379 13.648C179.645 14.2813 179.189 15.1807 179.011 16.346H187.143ZM203.719 11.33C204.479 10.1647 205.429 9.25267 206.569 8.594C207.709 7.91 208.976 7.568 210.369 7.568V14.446H208.583C206.962 14.446 205.746 14.8007 204.935 15.51C204.125 16.194 203.719 17.41 203.719 19.158V29H197.221V7.796H203.719V11.33Z" fill="black"/>
</svg>
